<svg xmlns="http://www.w3.org/2000/svg" aria-hidden="true" style="position:absolute;width:0;height:0;overflow:hidden">
  <defs>
    <symbol id="icon-trash" viewBox="0 0 22 28">
      <path d="M8 21.5v-11c0-.281-.219-.5-.5-.5h-1c-.281 0-.5.219-.5.5v11c0 .281.219.5.5.5h1c.281 0 .5-.219.5-.5zm4 0v-11c0-.281-.219-.5-.5-.5h-1c-.281 0-.5.219-.5.5v11c0 .281.219.5.5.5h1c.281 0 .5-.219.5-.5zm4 0v-11c0-.281-.219-.5-.5-.5h-1c-.281 0-.5.219-.5.5v11c0 .281.219.5.5.5h1c.281 0 .5-.219.5-.5zM7.5 6h7l-.75-1.828A.6.6 0 0 0 13.484 4H8.531a.526.526 0 0 0-.266.172zm14.5.5v1c0 .281-.219.5-.5.5H20v14.812c0 1.719-1.125 3.187-2.5 3.187h-13c-1.375 0-2.5-1.406-2.5-3.125V7.999H.5a.494.494 0 0 1-.5-.5v-1c0-.281.219-.5.5-.5h4.828L6.422 3.39c.313-.766 1.25-1.391 2.078-1.391h5c.828 0 1.766.625 2.078 1.391l1.094 2.609H21.5c.281 0 .5.219.5.5z"/>
    </symbol>
    <symbol id="icon-arrow" viewBox="0 0 24 24">
      <path d="M18.293 11.293 13 16.586V5a1 1 0 0 0-2 0v11.586l-5.293-5.293a.999.999 0 1 0-1.414 1.414l7 7a1.006 1.006 0 0 0 1.414 0l7-7a.999.999 0 1 0-1.414-1.414z"/>
    </symbol>
    <symbol id="icon-minus" viewBox="0 0 24 24">
      <path d="M5 13h14a1 1 0 0 0 0-2H5a1 1 0 0 0 0 2z"/>
    </symbol>
    <symbol id="icon-plus" viewBox="0 0 24 24">
      <path d="M5 13h6v6a1 1 0 0 0 2 0v-6h6a1 1 0 0 0 0-2h-6V5a1 1 0 0 0-2 0v6H5a1 1 0 0 0 0 2z"/>
    </symbol>
    <symbol id="icon-star" viewBox="0 0 24 24">
      <path d="M12.897 1.557a1 1 0 0 0-1.793 0L8.246 7.346l-6.391.935a1 1 0 0 0-.553 1.705l4.623 4.503-1.091 6.362a1 1 0 0 0 1.452 1.054L12 18.9l5.715 3.005a1 1 0 0 0 1.451-1.054l-1.091-6.362 4.623-4.503a1 1 0 0 0-.553-1.706l-6.39-.934zM12 4.259l2.193 4.444c.151.305.436.499.752.547l4.906.717-3.549 3.457a1 1 0 0 0-.288.885l.837 4.883-4.386-2.307a1.001 1.001 0 0 0-.931 0l-4.386 2.307.837-4.883a.996.996 0 0 0-.288-.885L4.148 9.967l4.907-.718a1 1 0 0 0 .752-.546z"/>
    </symbol>
    <symbol id="icon-clear" viewBox="0 0 24 24">
      <path d="M18.984 6.422 13.406 12l5.578 5.578-1.406 1.406L12 13.406l-5.578 5.578-1.406-1.406L10.594 12 5.016 6.422l1.406-1.406L12 10.594l5.578-5.578z"/>
    </symbol>
    <symbol id="icon-clock" viewBox="0 0 24 24">
      <path d="M12.516 6.984v5.25l4.5 2.672-.75 1.266-5.25-3.188v-6h1.5zM12 20.016q3.281 0 5.648-2.367t2.367-5.648-2.367-5.648T12 3.986 6.352 6.353t-2.367 5.648 2.367 5.648T12 20.016zm0-18q4.125 0 7.055 2.93t2.93 7.055-2.93 7.055T12 21.986t-7.055-2.93-2.93-7.055 2.93-7.055T12 2.016z"/>
    </symbol>
    <symbol id="icon-delivery" viewBox="0 0 24 24">
      <path d="M18.984 17.016q.422 0 .727-.305t.305-.727-.305-.703-.727-.281-.703.281-.281.703.281.727.703.305zm0-4.032q1.219 0 2.109.891t.891 2.109-.891 2.109-2.109.891-2.109-.891-.891-2.109.891-2.109 2.109-.891zM5.016 6h4.969v2.016H5.016V6zm1.968 11.016q.422 0 .727-.305t.305-.727H6q0 .422.281.727t.703.305zm12-10.032v3.375l-4.5 5.625h-4.5q0 1.219-.891 2.109t-2.109.891-2.109-.891-.891-2.109H2.015v-3q0-1.641 1.172-2.813T6 8.999h3.984v5.016H13.5l3.516-4.359V6.984h-3V5.015h3q.797 0 1.383.586t.586 1.383z"/>
    </symbol>
    <symbol id="icon-location" viewBox="0 0 24 24">
      <path d="M12 2.016q-1.453 0-2.719.539t-2.227 1.5-1.5 2.227-.539 2.719q0 1.313.352 2.531t1.055 2.297q.703 1.172 1.57 2.203t1.57 2.203q.375.563.633 1.102t.539 1.148q.141.281.281.633t.375.609.609.258q.375 0 .609-.258t.375-.609.281-.633q.281-.609.539-1.148t.633-1.102q.703-1.125 1.57-2.18t1.57-2.227q.703-1.078 1.055-2.297T18.983 9q0-1.453-.539-2.719t-1.5-2.227-2.227-1.5-2.719-.539zm0 9.75q-1.031 0-1.758-.75t-.727-1.781.727-1.758T12 6.75t1.758.727.727 1.758-.727 1.781-1.758.75z"/>
    </symbol>
    <symbol id="icon-basket" viewBox="0 0 32 32">
      <path d="M29 14H3a1 1 0 1 1 0-2h2l6-11a1 1 0 0 1 1-1h2a1 1 0 0 1 1 1L9 12h14L17 1a1 1 0 0 1 1-1h3a1 1 0 0 1 1 1l5 11h2a1 1 0 1 1 0 2zM3 16h26a1 1 0 0 1 1 1l-2 14a1 1 0 0 1-1 1H5a1 1 0 0 1-1-1L2 17a1 1 0 0 1 1-1zm19 12h2a1 1 0 0 0 1-1l1-6a1 1 0 0 0-1-1h-2a1 1 0 0 0-1 1l-1 6a1 1 0 0 0 1 1zm-8-1a1 1 0 0 0 1 1h2a1 1 0 0 0 1-1v-6a1 1 0 0 0-1-1h-2a1 1 0 0 0-1 1v6zm-7 0a1 1 0 0 0 1 1h2a1 1 0 0 0 1-1l-1-6a1 1 0 0 0-1-1H7a1 1 0 0 0-1 1l1 6z"/>
    </symbol>
    <symbol id="icon-facebook" viewBox="0 0 32 32">
      <path d="M29 0H3C1.35 0 0 1.35 0 3v26c0 1.65 1.35 3 3 3h13V18h-4v-4h4v-2c0-3.306 2.694-6 6-6h4v4h-4c-1.1 0-2 .9-2 2v2h6l-1 4h-5v14h9c1.65 0 3-1.35 3-3V3c0-1.65-1.35-3-3-3z"/>
    </symbol>
    <symbol id="icon-twitter" viewBox="0 0 32 32">
      <path d="M32 6.078c-1.19.522-2.458.868-3.78 1.036a6.523 6.523 0 0 0 2.886-3.626 13.11 13.11 0 0 1-4.16 1.588A6.574 6.574 0 0 0 22.154 3c-3.632 0-6.556 2.948-6.556 6.562 0 .52.044 1.02.152 1.496-5.454-.266-10.28-2.88-13.522-6.862a6.605 6.605 0 0 0-.898 3.316 6.57 6.57 0 0 0 2.914 5.452 6.479 6.479 0 0 1-2.964-.808v.072c0 3.188 2.274 5.836 5.256 6.446a6.548 6.548 0 0 1-1.72.216 5.8 5.8 0 0 1-1.242-.112c.85 2.598 3.262 4.508 6.13 4.57a13.182 13.182 0 0 1-8.134 2.798c-.538 0-1.054-.024-1.57-.09A18.469 18.469 0 0 0 10.064 29c12.072 0 18.672-10 18.672-18.668 0-.29-.01-.57-.024-.848A13.087 13.087 0 0 0 32 6.078z"/>
    </symbol>
    <symbol id="icon-apple" viewBox="0 0 32 32">
      <path d="M24.734 17.003c-.04-4.053 3.305-5.996 3.454-6.093-1.88-2.751-4.808-3.127-5.851-3.171-2.492-.252-4.862 1.467-6.127 1.467-1.261 0-3.213-1.43-5.28-1.392-2.716.04-5.221 1.579-6.619 4.012-2.822 4.897-.723 12.151 2.028 16.123 1.344 1.944 2.947 4.127 5.051 4.049 2.026-.081 2.793-1.311 5.242-1.311s3.138 1.311 5.283 1.271c2.18-.041 3.562-1.981 4.897-3.931 1.543-2.255 2.179-4.439 2.216-4.551-.048-.022-4.252-1.632-4.294-6.473zM20.705 5.11C21.822 3.755 22.576 1.875 22.37 0c-1.609.066-3.559 1.072-4.713 2.423-1.036 1.199-1.942 3.113-1.699 4.951 1.796.14 3.629-.913 4.747-2.264z"/>
    </symbol>
    <symbol id="icon-android" viewBox="0 0 32 32">
      <path d="M28 12c-1.1 0-2 .9-2 2v8c0 1.1.9 2 2 2s2-.9 2-2v-8c0-1.1-.9-2-2-2zM4 12c-1.1 0-2 .9-2 2v8c0 1.1.9 2 2 2s2-.9 2-2v-8c0-1.1-.9-2-2-2zm3 11a3 3 0 0 0 3 3v4c0 1.1.9 2 2 2s2-.9 2-2v-4h4v4c0 1.1.9 2 2 2s2-.9 2-2v-4a3 3 0 0 0 3-3V12H7v11zM24.944 10a8.994 8.994 0 0 0-4.051-6.551l1.001-2.001a1 1 0 0 0-1.789-.895l-1.004 2.009-.261-.104C17.947 2.161 16.992 2 16 2s-1.947.161-2.84.458l-.261.104L11.895.553a1 1 0 0 0-1.789.895l1.001 2.001A8.996 8.996 0 0 0 7.056 10v1H25v-1h-.056zM13 8a1 1 0 0 1-.002-2h.005a1 1 0 0 1-.002 2zm6 0a1 1 0 0 1-.002-2h.005a1 1 0 0 1-.002 2z"/>
    </symbol>
    <symbol id="icon-pinterest" viewBox="0 0 32 32">
      <path d="M16 2.138c-7.656 0-13.863 6.206-13.863 13.863 0 5.875 3.656 10.887 8.813 12.906-.119-1.094-.231-2.781.05-3.975.25-1.081 1.625-6.887 1.625-6.887s-.412-.831-.412-2.056c0-1.925 1.119-3.369 2.506-3.369 1.181 0 1.756.887 1.756 1.95 0 1.188-.756 2.969-1.15 4.613-.331 1.381.688 2.506 2.05 2.506 2.462 0 4.356-2.6 4.356-6.35 0-3.319-2.387-5.638-5.787-5.638-3.944 0-6.256 2.956-6.256 6.019 0 1.194.456 2.469 1.031 3.163a.408.408 0 0 1 .094.4c-.106.438-.338 1.381-.387 1.575-.063.256-.2.306-.463.188-1.731-.806-2.813-3.337-2.813-5.369 0-4.375 3.175-8.387 9.156-8.387 4.806 0 8.544 3.425 8.544 8.006 0 4.775-3.012 8.625-7.194 8.625-1.406 0-2.725-.731-3.175-1.594 0 0-.694 2.644-.863 3.294-.313 1.206-1.156 2.712-1.725 3.631 1.3.4 2.675.619 4.106.619 7.656 0 13.863-6.206 13.863-13.863 0-7.662-6.206-13.869-13.863-13.869z"/>
    </symbol>
    <symbol id="icon-foursquare" viewBox="0 0 32 32">
      <path d="M26.611 2.815A1.998 1.998 0 0 0 25 2H6a2 2 0 0 0-2 2v24a2 2 0 0 0 3.415 1.414L14.829 22h5.172a2 2 0 0 0 1.909-1.403l5-16a1.998 1.998 0 0 0-.298-1.781zM21.03 10H14a2 2 0 1 0 0 4h5.78l-1.25 4H14a2 2 0 0 0-1.414.586L8 23.172V6h14.28l-1.25 4z"/>
    </symbol>
    <symbol id="icon-shop" viewBox="0 0 32 32">
      <path d="m31.4 11.2-3-3.998a2.967 2.967 0 0 0-.4-.423V2a2 2 0 0 0-2-2H6a2 2 0 0 0-2 2v4.78a2.945 2.945 0 0 0-.4.42L.601 11.199A3.013 3.013 0 0 0 0 13v1c0 1.654 1.346 3 3 3v13a2 2 0 0 0 2 2h22a2 2 0 0 0 2-2V17c1.654 0 3-1.346 3-3v-1c0-.646-.213-1.285-.6-1.8zM26 2v4H6V2h20zM10.193 15H6.004l4-7h2.189l-2 7zm3.041-7H15.5v7h-4.266l2-7zM16.5 8h2.266l2 7H16.5V8zm3.305 0h2.189l4 7h-4.189l-2-7zM2 14v-1c0-.217.07-.427.2-.6l3-4A1 1 0 0 1 6 8h2.852l-4 7H3a1 1 0 0 1-1-1zm18 16h-7.5V20H20v10zm7 0h-6V20a1 1 0 0 0-1-1h-7.5a1 1 0 0 0-1 1v10H5V17h22v13zm3-16a1 1 0 0 1-1 1h-1.854l-4-7H26c.314 0 .611.148.799.4l3 4A.992.992 0 0 1 30 13v1z"/>
    </symbol>
    <symbol id="icon-cheveron" viewBox="0 0 20 20">
      <path d="m12.95 10.707.707-.707L8 4.343 6.586 5.757 10.828 10l-4.242 4.243L8 15.657l4.95-4.95z"/>
    </symbol>
    <symbol id="icon-menu" viewBox="0 0 20 20">
      <path d="M0 3h20v2H0V3zm0 6h20v2H0V9zm0 6h20v2H0v-2z"/>
    </symbol>
    <symbol id="icon-account-icon" viewBox="0 0 20 20">
      <path d="M10 20C4.477 20 0 15.523 0 10S4.477 0 10 0s10 4.477 10 10-4.477 10-10 10zM7 6v2a3 3 0 1 0 6 0V6a3 3 0 1 0-6 0zm-3.65 8.44c1.456 2.155 3.89 3.553 6.65 3.553s5.194-1.398 6.632-3.525l.018-.028c-1.951-.918-4.238-1.453-6.65-1.453s-4.699.536-6.748 1.495l.098-.041z"/>
    </symbol>
  </defs>
</svg>
